<svg xmlns="http://www.w3.org/2000/svg" version="1.1" xmlns:xlink="http://www.w3.org/1999/xlink" xmlns:svgjs="http://svgjs.dev/svgjs" width="1500" height="476" viewBox="0 0 1500 476"><g transform="matrix(1,0,0,1,0.15999999999996817,0.1859999999998081)"><svg viewBox="0 0 375 119" data-background-color="#ffffff" preserveAspectRatio="xMidYMid meat" height="476" width="1500" xmlns="http://www.w3.org/2000/svg" xmlns:xlink="http://www.w3.org/1999/xlink"><g id="tight-bounds" transform="matrix(1,0,0,1,-0.03976000000000113,-0.046019999999970196)"><svg viewBox="0 0 375.07953 119.09233999999998" height="119.09233999999998" width="375.07953"><g><svg></svg></g><g><svg viewBox="0 0 375.07953 119.09233999999998" height="119.09233999999998" width="375.07953"><g transform="matrix(1,0,0,1,-10.22024,-66.16347999999999)"><path d="M10.22 181.037v-114.874h375.08v114.874h-133.099l0-3.707h129.392v-107.46h-367.666v107.46l22.488 0 0 3.707z" fill="#264f0b" fill-rule="nonzero" stroke="none" stroke-width="1" stroke-linecap="butt" stroke-linejoin="miter" stroke-miterlimit="10" stroke-dasharray="" stroke-dashoffset="0" font-family="none" font-weight="none" font-size="none" text-anchor="none" style="mix-blend-mode: normal" data-fill-palette-color="tertiary"></path><g><path d="M47.535 182.831c0-0.294 0.123-0.554 0.369-0.78 0.246-0.23 0.435-0.388 0.567-0.475 0.136-0.087 0.226-0.155 0.272-0.204v0c0.081 1.438 1.052 2.158 2.914 2.158v0c1.468 0 3.179-0.457 5.135-1.372v0c1.39-0.634 2.323-1.282 2.797-1.945v0c0.155-0.204 0.233-0.373 0.233-0.509 0-0.133-0.023-0.239-0.068-0.32v0l-9.828-2.201c-0.281-0.061-0.556-0.196-0.824-0.403v0c-0.491-0.346-0.737-0.661-0.737-0.945v0c0-1.089 0.774-2.075 2.322-2.958v0c1.704-0.963 3.984-1.691 6.842-2.182v0c0.646-0.11 1.128-0.173 1.444-0.189v0c0.094 0.032 0.239 0.06 0.437 0.083 0.197 0.026 0.398 0.061 0.601 0.106v0c0.491 0.11 0.697 0.315 0.616 0.616v0c0 0.537-1.025 0.963-3.074 1.28v0c-2.654 0.394-4.307 0.726-4.96 0.994-0.656 0.268-1.13 0.545-1.421 0.829-0.294 0.284-0.448 0.624-0.461 1.018v0c0 0.078 0.181 0.165 0.543 0.262 0.362 0.094 0.795 0.207 1.3 0.34 0.507 0.136 1.164 0.314 1.968 0.533v0c1.956 0.537 4.354 1.215 7.196 2.036v0c0.158 0.349 0.238 0.672 0.237 0.97v0c0 0.837-0.49 1.642-1.469 2.415v0c-1.105 0.87-2.636 1.605-4.591 2.206v0c-1.626 0.488-2.921 0.732-3.884 0.732v0c-0.805 0-1.571-0.142-2.299-0.427-0.724-0.284-1.267-0.561-1.629-0.829-0.365-0.268-0.548-0.548-0.548-0.838zM72.705 180.97v0c-1.186 1.865-2.765 3.018-4.737 3.457v0c-0.456 0.097-0.87 0.145-1.241 0.145-0.372 0-0.68-0.005-0.927-0.014-0.242-0.006-0.514-0.042-0.814-0.107-0.301-0.061-0.577-0.163-0.829-0.306v0c-0.585-0.333-0.878-0.798-0.878-1.396v0c-0.061-0.284-0.092-0.604-0.092-0.96 0-0.356 0.079-0.826 0.238-1.411 0.155-0.582 0.443-1.212 0.863-1.891 0.417-0.679 0.926-1.303 1.527-1.872v0c1.248-1.199 2.597-1.973 4.049-2.322v0c0.427-0.094 0.816-0.141 1.168-0.141 0.356 0 0.676 0.024 0.96 0.073v0c0.915 0 1.531 0.624 1.848 1.872v0c0.207 0.789 0.33 1.889 0.368 3.302 0.039 1.413 0.078 2.502 0.116 3.268 0.039 0.763 0.137 1.461 0.296 2.094v0h-1.396c-0.061-0.427-0.108-0.806-0.141-1.139-0.032-0.33-0.065-0.637-0.097-0.921v0c-0.078-0.663-0.171-1.24-0.281-1.731zM72.608 177.304v0c0-0.918-0.449-1.377-1.348-1.377v0c-0.11-0.013-0.221-0.019-0.335-0.019v0c-1.151 0-2.365 0.551-3.641 1.653v0c-0.601 0.507-1.115 1.076-1.542 1.707v0c-0.63 0.899-0.945 1.704-0.945 2.414v0c0 0.931 0.537 1.484 1.609 1.659v0c1.419-0.032 2.777-0.68 4.073-1.945v0c0.553-0.553 1.01-1.152 1.373-1.799v0c0.504-0.866 0.756-1.631 0.756-2.293zM75.949 175.738v0c-0.032-0.078-0.048-0.168-0.049-0.272 0-0.103 0.039-0.241 0.117-0.412 0.081-0.175 0.196-0.325 0.344-0.451 0.149-0.126 0.315-0.186 0.499-0.179 0.181 0.01 0.326 0.124 0.437 0.344v0l3.976 7.39c0.126-0.191 0.328-0.543 0.606-1.058 0.275-0.511 0.59-1.091 0.945-1.74 0.356-0.646 0.727-1.32 1.115-2.022 0.385-0.701 0.743-1.345 1.077-1.93v0c0.756-1.341 1.206-2.012 1.348-2.012v0c0.333 0 0.574 0.123 0.722 0.368 0.149 0.242 0.223 0.427 0.223 0.553 0 0.126 0 0.213 0 0.262v0c-0.882 1.927-1.699 3.703-2.448 5.329-0.75 1.626-1.248 2.68-1.494 3.161-0.242 0.482-0.459 0.863-0.65 1.144v0c-0.33 0.491-0.653 0.737-0.969 0.737-0.317 0-0.68-0.249-1.091-0.746-0.411-0.498-0.876-1.165-1.397-2.003v0c-0.915-1.513-2.019-3.667-3.311-6.463zM88.9 180.402v0c0-1.862 0.805-3.36 2.414-4.494v0c1.277-0.902 2.815-1.447 4.616-1.634v0c0.094 0 0.314 0 0.66 0 0.349 0 0.816 0.102 1.401 0.305v0c1.293 0.443 2.175 1.223 2.647 2.342v0c0.191 0.443 0.286 0.818 0.286 1.125 0 0.31-0.008 0.529-0.024 0.654v0c0 1.972-0.75 3.527-2.25 4.665v0c-1.387 1.041-3.123 1.561-5.207 1.561v0c-1.5 0-2.633-0.347-3.399-1.042-0.763-0.695-1.144-1.855-1.144-3.482zM90.529 180.97v0c0 0.979 0.262 1.644 0.785 1.992v0c0.394 0.252 1.057 0.378 1.988 0.379 0.931 0 1.752-0.071 2.463-0.214 0.708-0.142 1.338-0.388 1.891-0.737v0c1.183-0.756 1.775-1.931 1.775-3.525v0c0-0.947-0.252-1.721-0.756-2.322v0c-0.553-0.646-1.278-0.97-2.178-0.97v0c-0.617 0.11-1.236 0.228-1.857 0.354-0.624 0.126-1.212 0.372-1.765 0.737v0c-1.199 0.773-1.982 2.208-2.346 4.306zM113.565 176.262v0c-0.663-0.475-1.514-0.713-2.555-0.713v0c-0.979 0-1.886 0.183-2.721 0.548v0c-1.581 0.663-2.662 1.514-3.243 2.555v0c-0.255 0.472-0.383 0.976-0.383 1.513v0c0 0.097 0 0.362 0 0.795 0 0.433 0.079 1.017 0.237 1.75 0.158 0.734 0.238 1.48 0.238 2.24v0c-0.33 0.016-0.598 0.055-0.805 0.117-0.204 0.065-0.377 0.097-0.519 0.097-0.142 0-0.265-0.063-0.368-0.189-0.103-0.126-0.218-0.372-0.345-0.737v0c-0.016-0.094-0.047-0.362-0.092-0.805-0.048-0.44-0.108-0.976-0.179-1.61-0.071-0.63-0.15-1.32-0.238-2.07-0.087-0.75-0.17-1.489-0.247-2.216v0c-0.175-1.577-0.309-2.736-0.402-3.477v0c0-0.381 0.276-0.572 0.829-0.572v0c0.33 0 0.59 0.139 0.78 0.417 0.191 0.275 0.341 0.59 0.451 0.946 0.11 0.356 0.184 0.708 0.223 1.057 0.039 0.346 0.074 0.59 0.107 0.732v0c2.085-1.862 4.674-2.793 7.768-2.793v0c0.346 0 0.708 0.008 1.086 0.024v0c0.097-0.016 0.217-0.024 0.358-0.024 0.139 0 0.28 0.094 0.422 0.281v0c0.175 0.223 0.262 0.491 0.262 0.805v0c0 0.789-0.221 1.232-0.664 1.328zM128.601 182.628v0l0.048-3.787c0-0.601-0.055-1.114-0.165-1.537v0h-3.67l-0.049-1.634h3.55v-6.109c0.048-0.142 0.144-0.284 0.286-0.427v0c0.22-0.22 0.406-0.33 0.557-0.33 0.149 0 0.278 0.015 0.388 0.044 0.11 0.032 0.23 0.144 0.359 0.334v0c0.252 1.041 0.378 2.61 0.378 4.709v0c0 0.524 0.023 1.038 0.068 1.541v0c0.507-0.065 1.013-0.097 1.518-0.097v0c0 0 0.411 0 1.231 0v0c0.301 0 0.577-0.015 0.829-0.043v0l-0.072 1.702-3.458-0.092 0.122 8.165c-0.284 0.126-0.53 0.189-0.737 0.189v0c-0.789 0-1.183-0.876-1.183-2.628zM145.954 184.572v0c-0.142 0.268-0.509 0.402-1.101 0.403-0.592 0-0.887-0.213-0.887-0.64v0c0-1.862-0.039-3.14-0.116-3.836v0c-0.142-1.532-0.443-2.353-0.902-2.463v0c-1.138-0.22-2.066-0.33-2.783-0.33-0.718 0-1.309 0.217-1.775 0.65-0.465 0.433-0.821 1.151-1.067 2.153-0.242 1.002-0.42 2.411-0.533 4.228v0h-1.823c0.032-0.902 0.048-1.739 0.048-2.512 0-0.773-0.016-1.692-0.048-2.759-0.029-1.063-0.068-2.227-0.116-3.491v0c-0.078-1.451-0.116-2.678-0.117-3.68 0-1.002 0.063-1.922 0.189-2.759v0c0.158-0.301 0.386-0.451 0.684-0.451v0c0.365 0 0.65 0.131 0.853 0.393 0.207 0.259 0.317 0.491 0.33 0.698v0l-0.116 3.908c0 1.468 0.071 2.563 0.213 3.288v0c1.419-0.947 2.887-1.421 4.403-1.421v0c0.491 0 1.012 0.04 1.561 0.121v0c1.186 0.614 1.96 1.269 2.322 1.964v0c0.175 0.362 0.284 0.748 0.33 1.159 0.048 0.411 0.081 0.876 0.097 1.396v0c0.094 1.8 0.212 3.127 0.354 3.981zM151.661 183.244v0c1.39 0 3.481-0.63 6.274-1.891v0c0.175 0 0.317 0.058 0.427 0.174 0.11 0.12 0.165 0.259 0.165 0.417v0c-0.63 1.073-1.838 1.909-3.622 2.507-1.784 0.601-3.449 0.705-4.994 0.31v0c-1.752-0.459-2.819-1.447-3.201-2.962v0c-0.029-0.297-0.044-0.7-0.043-1.208 0-0.504 0.129-1.17 0.388-1.997 0.262-0.831 0.708-1.616 1.338-2.357 0.63-0.743 1.372-1.327 2.226-1.75 0.853-0.427 1.762-0.64 2.725-0.64v0c0.915 0 1.939 0.315 3.074 0.945v0c0.537 0.301 0.963 0.64 1.28 1.019 0.317 0.378 0.475 0.764 0.475 1.158v0c0 0.11-0.008 0.221-0.024 0.335v0c-0.032 0.96-0.498 1.568-1.397 1.823v0c-0.394 0.11-0.853 0.165-1.377 0.165v0l-3.409-0.146c-1.135 0-2.003 0.246-2.603 0.737v0c-0.346 0.268-0.59 0.671-0.732 1.208v0c0.394 1.435 1.405 2.153 3.03 2.153zM155.884 175.927c-0.352-0.252-0.719-0.433-1.1-0.543-0.378-0.11-0.693-0.165-0.946-0.165-0.252 0-0.663 0.082-1.231 0.247-0.569 0.165-1.073 0.351-1.513 0.558v0c-1.089 0.504-1.634 1.033-1.634 1.585v0c1.261 0.11 2.208 0.165 2.841 0.165v0c1.752 0 2.935-0.15 3.549-0.451v0c0.378-0.155 0.567-0.352 0.568-0.591v0c0-0.281-0.178-0.55-0.534-0.805zM171.24 185.018v-4.048c-0.882-0.126-1.324-0.331-1.324-0.616v0c0-0.204 0.149-0.44 0.446-0.708 0.301-0.268 0.601-0.545 0.902-0.829v0c0-0.947-0.142-2.009-0.426-3.186-0.284-1.173-0.49-2.085-0.616-2.734-0.126-0.646-0.189-1.238-0.189-1.775 0-0.537 0.082-0.876 0.247-1.018 0.165-0.142 0.406-0.213 0.722-0.214 0.317 0 0.522 0.044 0.616 0.131 0.094 0.087 0.157 0.194 0.189 0.32 0.032 0.126 0.052 0.26 0.058 0.403 0.01 0.142 0.037 0.276 0.083 0.402v0c0.081 0.301 0.326 0.451 0.737 0.451v0c1.057-0.016 2.114-0.107 3.171-0.271 1.057-0.168 2.108-0.338 3.152-0.51v0c2.082-0.349 3.544-0.524 4.388-0.523 0.844 0 1.511 0.024 2.002 0.072v0c0.016 0.301 0.047 0.561 0.092 0.781 0.048 0.22 0.073 0.401 0.073 0.543v0c0 0.268-0.26 0.364-0.781 0.286v0c-8.256 0.301-12.384 0.916-12.383 1.848v0c0 1.025 0.071 1.904 0.213 2.637 0.142 0.734 0.249 1.196 0.32 1.387 0.071 0.191 0.154 0.286 0.247 0.286v0c0.902 0 1.813-0.079 2.735-0.238 0.924-0.158 1.849-0.328 2.774-0.509 0.921-0.181 1.847-0.351 2.778-0.509 0.931-0.158 1.847-0.238 2.749-0.237v0c0.016 0 0.024 0.06 0.024 0.179 0 0.116-0.008 0.246-0.024 0.388v0c-0.048 0.378-0.048 0.567 0 0.567v0c-0.679 0.378-1.91 0.687-3.695 0.926v0c-0.773 0.11-1.561 0.212-2.366 0.306-0.805 0.094-1.547 0.197-2.225 0.31v0c-1.565 0.22-2.473 0.511-2.725 0.873v0l-0.257 4.64c-0.175 0.175-0.373 0.262-0.597 0.262v0l-0.872-0.073c-0.081 0-0.16 0-0.238 0zM186.867 175.714c-0.032-0.85-0.065-1.611-0.097-2.284-0.032-0.669-0.052-1.165-0.058-1.489-0.01-0.323-0.141-1.117-0.393-2.38v0c0.142-0.191 0.281-0.372 0.417-0.543 0.133-0.175 0.325-0.262 0.577-0.262v0c0.553 0 0.979 2.327 1.28 6.982v0c0.158 2.699 0.238 5.398 0.238 8.097v0c0 0.727-0.506 1.091-1.518 1.091v0l-0.189-0.024c0-0.821-0.023-1.87-0.068-3.147-0.048-1.28-0.084-2.394-0.106-3.341-0.026-0.947-0.053-1.847-0.083-2.7zM199.556 180.97v0c-1.183 1.865-2.762 3.018-4.737 3.457v0c-0.456 0.097-0.87 0.145-1.241 0.145-0.372 0-0.68-0.005-0.926-0.014-0.242-0.006-0.514-0.042-0.815-0.107-0.301-0.061-0.577-0.163-0.829-0.306v0c-0.585-0.333-0.878-0.798-0.878-1.396v0c-0.061-0.284-0.092-0.604-0.092-0.96 0-0.356 0.079-0.826 0.238-1.411 0.158-0.582 0.446-1.212 0.863-1.891 0.417-0.679 0.926-1.303 1.527-1.872v0c1.248-1.199 2.597-1.973 4.049-2.322v0c0.427-0.094 0.818-0.141 1.173-0.141 0.352 0 0.671 0.024 0.956 0.073v0c0.918 0 1.534 0.624 1.847 1.872v0c0.207 0.789 0.33 1.889 0.368 3.302 0.039 1.413 0.078 2.502 0.117 3.268 0.039 0.763 0.137 1.461 0.296 2.094v0h-1.397c-0.061-0.427-0.108-0.806-0.14-1.139-0.032-0.33-0.065-0.637-0.097-0.921v0c-0.078-0.663-0.171-1.24-0.282-1.731zM199.459 177.304v0c0-0.918-0.449-1.377-1.348-1.377v0c-0.11-0.013-0.22-0.019-0.329-0.019v0c-1.154 0-2.369 0.551-3.646 1.653v0c-0.601 0.507-1.115 1.076-1.542 1.707v0c-0.63 0.899-0.945 1.704-0.946 2.414v0c0 0.931 0.537 1.484 1.61 1.659v0c1.419-0.032 2.777-0.68 4.073-1.945v0c0.553-0.553 1.01-1.152 1.372-1.799v0c0.504-0.866 0.756-1.631 0.756-2.293zM202.8 175.738v0c-0.032-0.078-0.048-0.168-0.048-0.272 0-0.103 0.039-0.241 0.116-0.412 0.081-0.175 0.196-0.325 0.344-0.451 0.152-0.126 0.318-0.186 0.5-0.179 0.181 0.01 0.326 0.124 0.436 0.344v0l3.976 7.39c0.126-0.191 0.328-0.543 0.606-1.058 0.275-0.511 0.59-1.091 0.946-1.74 0.356-0.646 0.727-1.32 1.115-2.022 0.385-0.701 0.743-1.345 1.076-1.93v0c0.756-1.341 1.206-2.012 1.348-2.012v0c0.333 0 0.574 0.123 0.723 0.368 0.149 0.242 0.223 0.427 0.223 0.553 0 0.126 0 0.213 0 0.262v0c-0.882 1.927-1.699 3.703-2.449 5.329-0.75 1.626-1.248 2.68-1.493 3.161-0.242 0.482-0.459 0.863-0.65 1.144v0c-0.33 0.491-0.653 0.737-0.97 0.737-0.317 0-0.68-0.249-1.091-0.746-0.411-0.498-0.876-1.165-1.396-2.003v0c-0.915-1.513-2.019-3.667-3.312-6.463zM215.751 180.402v0c0-1.862 0.805-3.36 2.415-4.494v0c1.277-0.902 2.815-1.447 4.616-1.634v0c0.094 0 0.315 0 0.664 0 0.346 0 0.811 0.102 1.396 0.305v0c1.293 0.443 2.177 1.223 2.652 2.342v0c0.187 0.443 0.281 0.818 0.282 1.125 0 0.31-0.008 0.529-0.025 0.654v0c0 1.972-0.75 3.527-2.249 4.665v0c-1.387 1.041-3.123 1.561-5.208 1.561v0c-1.5 0-2.633-0.347-3.399-1.042-0.763-0.695-1.144-1.855-1.144-3.482zM217.385 180.97v0c0 0.979 0.26 1.644 0.781 1.992v0c0.394 0.252 1.057 0.378 1.988 0.379 0.931 0 1.752-0.071 2.463-0.214 0.708-0.142 1.338-0.388 1.891-0.737v0c1.183-0.756 1.775-1.931 1.774-3.525v0c0-0.947-0.252-1.721-0.756-2.322v0c-0.553-0.646-1.278-0.97-2.177-0.97v0c-0.614 0.11-1.233 0.228-1.857 0.354-0.624 0.126-1.212 0.372-1.765 0.737v0c-1.199 0.773-1.98 2.208-2.342 4.306zM240.421 176.262v0c-0.666-0.475-1.519-0.713-2.56-0.713v0c-0.979 0-1.886 0.183-2.72 0.548v0c-1.581 0.663-2.662 1.514-3.244 2.555v0c-0.252 0.472-0.378 0.976-0.378 1.513v0c0 0.097 0 0.362 0 0.795 0 0.433 0.078 1.017 0.233 1.75 0.158 0.734 0.238 1.48 0.237 2.24v0c-0.33 0.016-0.598 0.055-0.805 0.117-0.204 0.065-0.377 0.097-0.518 0.097-0.142 0-0.265-0.063-0.369-0.189-0.103-0.126-0.218-0.372-0.344-0.737v0c-0.016-0.094-0.047-0.362-0.092-0.805-0.048-0.44-0.108-0.976-0.18-1.61-0.071-0.63-0.15-1.32-0.237-2.07-0.087-0.75-0.17-1.489-0.248-2.216v0c-0.175-1.577-0.309-2.736-0.402-3.477v0c0-0.381 0.276-0.572 0.829-0.572v0c0.33 0 0.59 0.139 0.781 0.417 0.191 0.275 0.341 0.59 0.451 0.946 0.11 0.356 0.184 0.708 0.223 1.057 0.039 0.346 0.074 0.59 0.106 0.732v0c2.085-1.862 4.674-2.793 7.768-2.793v0c0.346 0 0.708 0.008 1.086 0.024v0c0.097-0.016 0.217-0.024 0.359-0.024 0.142 0 0.284 0.094 0.427 0.281v0c0.171 0.223 0.257 0.491 0.257 0.805v0c0 0.789-0.22 1.232-0.66 1.328z" fill="#264f0b" fill-rule="nonzero" stroke="none" stroke-width="1" stroke-linecap="butt" stroke-linejoin="miter" stroke-miterlimit="10" stroke-dasharray="" stroke-dashoffset="0" font-family="none" font-weight="none" font-size="none" text-anchor="none" style="mix-blend-mode: normal" data-fill-palette-color="secondary" id="text-1"></path></g></g><g transform="matrix(1,0,0,1,29.33176499999999,38.99422938494166)"><svg viewBox="0 0 316.416 41.10388123011665" height="41.10388123011665" width="316.416"><g><svg viewBox="0 0 316.416 41.10388123011665" height="41.10388123011665" width="316.416"><g><svg viewBox="0 0 316.416 41.10388123011665" height="41.10388123011665" width="316.416"><g><svg viewBox="0 0 316.416 41.10388123011665" height="41.10388123011665" width="316.416"><g id="textblocktransform"><svg viewBox="0 0 316.416 41.10388123011665" height="41.10388123011665" width="316.416" id="textblock"><g><svg viewBox="0 0 316.416 41.10388123011665" height="41.10388123011665" width="316.416"><g transform="matrix(1,0,0,1,0,0)"><svg width="316.416" viewBox="3.8 -36.15 282.87 36.75" height="41.10388123011665" data-palette-color="#264f0b"><path d="M10.3 0L3.8 0 3.8-34.3 28.45-34.3 28.45-28.75 10.3-28.75 10.3-19.55 26.65-19.55 26.65-14 10.3-14 10.3 0ZM39.8 0L33.7 0 33.7-36.15 39.8-36.15 39.8 0ZM53.05 0.6L53.05 0.6Q51.95 0.6 50.52 0.33 49.09 0.05 47.77-0.7 46.45-1.45 45.59-2.93 44.75-4.4 44.75-6.8L44.75-6.8Q44.75-9.5 45.95-11.28 47.15-13.05 49.32-14.08 51.5-15.1 54.52-15.53 57.55-15.95 61.15-15.95L61.15-15.95 61.15-18.1Q61.15-19.25 60.8-20.15 60.45-21.05 59.52-21.58 58.59-22.1 56.75-22.1L56.75-22.1Q54.9-22.1 53.84-21.65 52.8-21.2 52.4-20.55 52-19.9 52-19.2L52-19.2 52-18.5 46.09-18.5Q46.05-18.75 46.05-19 46.05-19.25 46.05-19.6L46.05-19.6Q46.05-21.85 47.4-23.5 48.75-25.15 51.15-26.03 53.55-26.9 56.7-26.9L56.7-26.9Q60.3-26.9 62.62-25.9 64.95-24.9 66.09-23.05 67.25-21.2 67.25-18.55L67.25-18.55 67.25-6.15Q67.25-5.2 67.8-4.8 68.34-4.4 69-4.4L69-4.4 70.59-4.4 70.59-0.2Q70.09 0 69.15 0.28 68.2 0.55 66.8 0.55L66.8 0.55Q65.5 0.55 64.47 0.13 63.45-0.3 62.75-1.1 62.05-1.9 61.75-3L61.75-3 61.45-3Q60.59-1.95 59.42-1.13 58.25-0.3 56.67 0.15 55.09 0.6 53.05 0.6ZM54.9-4.4L54.9-4.4Q56.4-4.4 57.57-4.85 58.75-5.3 59.52-6.1 60.3-6.9 60.72-8.05 61.15-9.2 61.15-10.55L61.15-10.55 61.15-11.75Q58.4-11.75 56.07-11.4 53.75-11.05 52.37-10.1 51-9.15 51-7.4L51-7.4Q51-6.5 51.42-5.83 51.84-5.15 52.72-4.78 53.59-4.4 54.9-4.4ZM87.24 0L80.84 0 71.09-26.3 77.49-26.3 81.74-14.45Q82.04-13.6 82.47-12.18 82.89-10.75 83.34-9.22 83.79-7.7 84.09-6.45L84.09-6.45 84.34-6.45Q84.64-7.6 85.04-9.1 85.44-10.6 85.87-12.05 86.29-13.5 86.64-14.45L86.64-14.45 90.84-26.3 97.04-26.3 87.24 0ZM112.24 0.6L112.24 0.6Q107.94 0.6 105.04-0.88 102.14-2.35 100.69-5.4 99.24-8.45 99.24-13.15L99.24-13.15Q99.24-17.9 100.69-20.93 102.14-23.95 105.04-25.43 107.94-26.9 112.24-26.9L112.24-26.9Q116.59-26.9 119.47-25.43 122.34-23.95 123.79-20.93 125.24-17.9 125.24-13.15L125.24-13.15Q125.24-8.45 123.79-5.4 122.34-2.35 119.47-0.88 116.59 0.6 112.24 0.6ZM112.24-4.4L112.24-4.4Q114.64-4.4 116.12-5.33 117.59-6.25 118.27-8.13 118.94-10 118.94-12.8L118.94-12.8 118.94-13.5Q118.94-16.3 118.27-18.18 117.59-20.05 116.12-20.98 114.64-21.9 112.24-21.9L112.24-21.9Q109.84-21.9 108.37-20.98 106.89-20.05 106.22-18.18 105.54-16.3 105.54-13.5L105.54-13.5 105.54-12.8Q105.54-10 106.22-8.13 106.89-6.25 108.37-5.33 109.84-4.4 112.24-4.4ZM136.54 0L130.44 0 130.44-26.3 135.54-26.3 136.04-22.15 136.39-22.15Q136.89-23.4 137.61-24.48 138.34-25.55 139.49-26.23 140.64-26.9 142.29-26.9L142.29-26.9Q143.09-26.9 143.76-26.75 144.44-26.6 144.79-26.45L144.79-26.45 144.79-20.7 142.94-20.7Q141.39-20.7 140.19-20.28 138.99-19.85 138.16-18.95 137.34-18.05 136.94-16.7 136.54-15.35 136.54-13.55L136.54-13.55 136.54 0ZM155.59 0L149.09 0 149.09-34.3 173.74-34.3 173.74-28.75 155.59-28.75 155.59-19.55 171.94-19.55 171.94-14 155.59-14 155.59 0ZM185.08-30.35L178.98-30.35 178.98-36.15 185.08-36.15 185.08-30.35ZM185.08 0L178.98 0 178.98-26.3 185.08-26.3 185.08 0ZM202.88 0.6L202.88 0.6Q198.68 0.6 195.88-0.88 193.08-2.35 191.68-5.4 190.28-8.45 190.28-13.15L190.28-13.15Q190.28-17.9 191.68-20.93 193.08-23.95 195.88-25.43 198.68-26.9 202.88-26.9L202.88-26.9Q206.68-26.9 209.26-25.48 211.83-24.05 213.13-21.1 214.43-18.15 214.43-13.45L214.43-13.45 214.43-11.65 196.53-11.65Q196.63-9.2 197.28-7.53 197.93-5.85 199.31-5.03 200.68-4.2 202.93-4.2L202.93-4.2Q204.08-4.2 205.08-4.5 206.08-4.8 206.83-5.43 207.58-6.05 208.01-7 208.43-7.95 208.43-9.2L208.43-9.2 214.43-9.2Q214.43-6.7 213.56-4.85 212.68-3 211.11-1.8 209.53-0.6 207.43 0 205.33 0.6 202.88 0.6ZM196.63-15.95L196.63-15.95 208.08-15.95Q208.08-17.6 207.71-18.75 207.33-19.9 206.66-20.65 205.98-21.4 205.03-21.73 204.08-22.05 202.88-22.05L202.88-22.05Q200.93-22.05 199.61-21.4 198.28-20.75 197.58-19.4 196.88-18.05 196.63-15.95ZM229.88 0.6L229.88 0.6Q227.03 0.6 224.88-0.03 222.73-0.65 221.28-1.75 219.83-2.85 219.1-4.33 218.38-5.8 218.38-7.55L218.38-7.55Q218.38-7.8 218.4-8 218.43-8.2 218.43-8.3L218.43-8.3 224.43-8.3Q224.43-8.2 224.43-8.1 224.43-8 224.43-7.9L224.43-7.9Q224.48-6.55 225.28-5.73 226.08-4.9 227.38-4.55 228.68-4.2 230.13-4.2L230.13-4.2Q231.43-4.2 232.6-4.48 233.78-4.75 234.55-5.38 235.33-6 235.33-7L235.33-7Q235.33-8.3 234.33-9 233.33-9.7 231.7-10.15 230.08-10.6 228.23-11.1L228.23-11.1Q226.58-11.55 224.93-12.1 223.28-12.65 221.95-13.5 220.63-14.35 219.8-15.7 218.98-17.05 218.98-19.05L218.98-19.05Q218.98-21 219.83-22.45 220.68-23.9 222.18-24.88 223.68-25.85 225.73-26.35 227.78-26.85 230.18-26.85L230.18-26.85Q232.53-26.85 234.45-26.35 236.38-25.85 237.8-24.93 239.23-24 240-22.68 240.78-21.35 240.78-19.75L240.78-19.75Q240.78-19.4 240.75-19.05 240.73-18.7 240.73-18.65L240.73-18.65 234.78-18.65 234.78-19Q234.78-19.95 234.2-20.63 233.63-21.3 232.55-21.7 231.48-22.1 229.88-22.1L229.88-22.1Q228.68-22.1 227.78-21.9 226.88-21.7 226.3-21.35 225.73-21 225.43-20.55 225.13-20.1 225.13-19.55L225.13-19.55Q225.13-18.6 225.88-18.05 226.63-17.5 227.9-17.1 229.18-16.7 230.68-16.25L230.68-16.25Q232.48-15.75 234.38-15.23 236.28-14.7 237.9-13.9 239.53-13.1 240.53-11.65 241.53-10.2 241.53-7.8L241.53-7.8Q241.53-5.5 240.65-3.88 239.78-2.25 238.2-1.28 236.63-0.3 234.5 0.15 232.38 0.6 229.88 0.6ZM253.63 0.6L253.63 0.6Q251.18 0.6 249.78-0.38 248.38-1.35 247.8-2.88 247.23-4.4 247.23-6L247.23-6 247.23-21.3 244.08-21.3 244.08-26.3 247.38-26.3 248.48-33.65 253.33-33.65 253.33-26.3 257.88-26.3 257.88-21.3 253.33-21.3 253.33-6.6Q253.33-5.55 253.88-4.98 254.43-4.4 255.53-4.4L255.53-4.4 257.88-4.4 257.88-0.2Q257.38 0 256.65 0.18 255.93 0.35 255.13 0.48 254.33 0.6 253.63 0.6ZM269.12 0.6L269.12 0.6Q268.02 0.6 266.6 0.33 265.17 0.05 263.85-0.7 262.52-1.45 261.67-2.93 260.82-4.4 260.82-6.8L260.82-6.8Q260.82-9.5 262.02-11.28 263.22-13.05 265.4-14.08 267.57-15.1 270.6-15.53 273.62-15.95 277.22-15.95L277.22-15.95 277.22-18.1Q277.22-19.25 276.87-20.15 276.52-21.05 275.6-21.58 274.67-22.1 272.82-22.1L272.82-22.1Q270.97-22.1 269.92-21.65 268.87-21.2 268.47-20.55 268.07-19.9 268.07-19.2L268.07-19.2 268.07-18.5 262.17-18.5Q262.12-18.75 262.12-19 262.12-19.25 262.12-19.6L262.12-19.6Q262.12-21.85 263.47-23.5 264.82-25.15 267.22-26.03 269.62-26.9 272.77-26.9L272.77-26.9Q276.37-26.9 278.7-25.9 281.02-24.9 282.17-23.05 283.32-21.2 283.32-18.55L283.32-18.55 283.32-6.15Q283.32-5.2 283.87-4.8 284.42-4.4 285.07-4.4L285.07-4.4 286.67-4.4 286.67-0.2Q286.17 0 285.22 0.28 284.27 0.55 282.87 0.55L282.87 0.55Q281.57 0.55 280.55 0.13 279.52-0.3 278.82-1.1 278.12-1.9 277.82-3L277.82-3 277.52-3Q276.67-1.95 275.5-1.13 274.32-0.3 272.75 0.15 271.17 0.6 269.12 0.6ZM270.97-4.4L270.97-4.4Q272.47-4.4 273.65-4.85 274.82-5.3 275.6-6.1 276.37-6.9 276.8-8.05 277.22-9.2 277.22-10.55L277.22-10.55 277.22-11.75Q274.47-11.75 272.15-11.4 269.82-11.05 268.45-10.1 267.07-9.15 267.07-7.4L267.07-7.4Q267.07-6.5 267.5-5.83 267.92-5.15 268.8-4.78 269.67-4.4 270.97-4.4Z" opacity="1" transform="matrix(1,0,0,1,0,0)" fill="#264f0b" class="wordmark-text-0" data-fill-palette-color="primary" id="text-0"></path></svg></g></svg></g></svg></g></svg></g></svg></g></svg></g></svg></g></svg></g><defs></defs></svg><rect width="375.07953" height="119.09233999999998" fill="none" stroke="none" visibility="hidden"></rect></g></svg></g></svg>